<svg xmlns="http://www.w3.org/2000/svg" viewBox="0 0 150 150" fill="currentColor" stroke="currentColor">
  <path d="M100,0v50h50V0h-50ZM134.38,34.38h-18.75V15.62h18.75v18.75Z"/>
  <path d="M0,65.62h25v18.75H0v-18.75Z"/>
  <path d="M131.25,65.62h18.75v18.75h-18.75v-18.75Z"/>
  <path d="M65.62,134.38v15.62h18.75v-12.5h28.12v-18.75h-46.88v15.62Z"/>
  <path d="M65.62,0h18.75v50h-18.75V0Z"/>
  <path d="M131.25,103.12h18.75v46.88h-18.75v-46.88Z"/>
  <path d="M0,150h50v-50H0v50ZM15.62,115.62h18.75v18.75H15.62v-18.75Z"/>
  <path d="M50,0H0v50h50V0ZM34.38,34.38H15.62V15.62h18.75v18.75Z"/>
  <path d="M84.38,65.62h-37.5v18.75h18.75v18.75h65.62v-18.75h-46.88v-18.75Z"/>
</svg>