<svg xmlns="http://www.w3.org/2000/svg" viewBox="0 0 202 200" fill="currentColor" stroke="currentColor">
  <defs>
    <style>
      .cls-1 {
        fill: none;
      }

      .cls-2 {
        clip-path: url(#clippath-1);
      }

      .cls-3 {
        clip-path: url(#clippath-2);
      }

      .cls-4 {
        clip-path: url(#clippath);
      }
    </style>
    <clipPath id="clippath">
      <rect class="cls-1" width="202" height="200"/>
    </clipPath>
    <clipPath id="clippath-1">
      <rect class="cls-1" width="202" height="200"/>
    </clipPath>
    <clipPath id="clippath-2">
      <rect class="cls-1" x="1" width="200" height="200"/>
    </clipPath>
  </defs>
  <g class="cls-4">
    <g class="cls-2">
      <g class="cls-3">
        <path d="M148.05,200c-6.33,0-12.29-2.98-16.09-8.04l-12.53-16.7-21.57,14.7c-3.33,2.28-7.28,3.5-11.32,3.49-5.33.02-10.45-2.11-14.21-5.89-3.78-3.76-5.9-8.88-5.89-14.21v-36.83H24.01c-11.1-.01-20.1-9.01-20.11-20.11,0-6.98,3.53-13.35,9.46-17.05L167.33,3.1c3.19-2,6.87-3.06,10.63-3.06,6.99,0,13.37,3.52,17.07,9.43,2.69,4.31,3.66,9.42,2.71,14.41l-29.94,159.71c-1.78,9.51-10.08,16.4-19.75,16.4ZM141.95,184.46c1.43,1.91,3.68,3.04,6.07,3.03,3.67,0,6.82-2.61,7.51-6.21l29.94-159.72c.14-.73.17-1.47.1-2.21l-84.24,110.93,40.62,54.18ZM78.92,173.35c-.02,4.19,3.35,7.6,7.54,7.62,1.55,0,3.07-.46,4.35-1.34l21.08-14.37-21.52-28.75h-11.45v36.84ZM173.95,13.7L19.97,109.95c-3.56,2.25-4.63,6.95-2.38,10.51,1.39,2.21,3.81,3.55,6.42,3.56h66.38L174.35,13.46l-.39.23Z"/>
      </g>
    </g>
  </g>
</svg>